<svg width="500" height="500" viewBox="0 0 500 500" fill="none" xmlns="http://www.w3.org/2000/svg">
<path d="M348.507 347.274C343.596 345.942 338.987 343.875 334.809 341.194C321.12 355.843 301.63 365 280 365C258.366 365 238.873 355.84 225.185 341.188C210.206 355.914 189.665 365 167 365C121.16 365 84 327.84 84 282C84 268.135 87.3999 255.064 93.4111 243.575C90.5557 235.583 89 226.973 89 218C89 182.694 113.075 153.011 145.704 144.472L348.507 347.274ZM165 142C172.373 142 179.501 143.051 186.242 145.01L384.547 343.315C377.663 346.944 369.822 349 361.5 349C360.02 349 358.555 348.933 357.108 348.806L151.499 143.195C155.881 142.41 160.392 142 165 142ZM276 128C303.02 128 326.127 144.744 335.516 168.422C341.748 166.841 348.276 166 355 166C398.63 166 434 201.37 434 245C434 266.752 425.207 286.45 410.983 300.736C410.575 317.395 401.936 332.011 388.979 340.676L197.66 149.357C205.402 153.048 212.421 158.009 218.448 163.972C228.84 142.673 250.706 128 276 128Z" fill="#1A365D"/>
</svg>
